<svg width="443" height="443" viewBox="0 0 443 443" fill="none" xmlns="http://www.w3.org/2000/svg">
<g clip-path="url(#clip0_17_2)">
<path fill-rule="evenodd" clip-rule="evenodd" d="M395.711 59.671L434.539 98.499C439.864 103.829 442.537 110.302 442.533 117.913C442.533 125.528 439.864 132 434.539 137.33L227.834 344.034L189.004 382.862C183.674 388.187 177.201 390.856 169.59 390.856C161.976 390.856 155.503 388.194 150.176 382.862L111.345 344.034L7.994 240.685C2.664 235.357 0 228.878 0 221.269C0 213.654 2.664 207.181 7.994 201.852L46.822 163.023C52.152 157.693 58.623 155.031 66.239 155.031C73.85 155.031 80.321 157.693 85.651 163.023L169.59 247.248L356.884 59.671C362.208 54.343 368.683 51.678 376.301 51.678C383.912 51.678 390.387 54.343 395.711 59.671Z" fill="black"/>
</g>
<defs>
<clipPath id="clip0_17_2">
<rect width="442.533" height="442.533" fill="white"/>
</clipPath>
</defs>
</svg>
